<?xml version="1.0" encoding="UTF-8"?>
<svg width="20px" height="20px" viewBox="0 0 20 20" version="1.1" xmlns="http://www.w3.org/2000/svg" xmlns:xlink="http://www.w3.org/1999/xlink">
    <!-- Generator: Sketch 56 (81588) - https://sketch.com -->
    <title>Dribbble</title>
    <desc>Created with Sketch.</desc>
    <g id="IRL-Website-2019" stroke="none" stroke-width="1" fill="none" fill-rule="evenodd">
        <g id="IRL-Website-2019-Desktop" transform="translate(-80.000000, -800.000000)" fill="#000000" fill-rule="nonzero">
            <g id="Sidebar">
                <path d="M90,820 C84.4875,820 80,815.5125 80,810 C80,804.4875 84.4875,800 90,800 C95.5125,800 100,804.4875 100,810 C100,815.5125 95.5125,820 90,820 Z M98.4333333,811.368333 C98.1416667,811.276667 95.7916667,810.574167 93.1133333,811.003333 C94.23,814.073333 94.6858333,816.573333 94.7733333,817.093333 C96.69,815.7975 98.0533333,813.743333 98.4358333,811.368333 L98.4333333,811.368333 Z M93.3375,817.875 C93.21,817.125 92.7125,814.515 91.5125,811.4 L91.4575,811.416667 C86.6325,813.095833 84.9075,816.4375 84.7575,816.75 C86.1991667,817.881667 88.0241667,818.555 89.9991667,818.555 C91.1825,818.555 92.3075,818.313333 93.3325,817.876667 L93.3375,817.875 Z M83.6541667,815.725 C83.8475,815.391667 86.1916667,811.5125 90.5975,810.0875 C90.71,810.05 90.8225,810.0175 90.935,809.9875 C90.7183333,809.5 90.485,809.015 90.2416667,808.5375 C85.975,809.8125 81.8383333,809.758333 81.4633333,809.75 L81.46,810.01 C81.46,812.204167 82.2916667,814.2075 83.655,815.7225 L83.6541667,815.725 Z M81.6375,808.2625 C82.0208333,808.269167 85.54,808.284167 89.535,807.2225 C88.12,804.7075 86.5933333,802.590833 86.3683333,802.2825 C83.9783333,803.4075 82.1933333,805.6075 81.6383333,808.2575 L81.6375,808.2625 Z M88,801.71 C88.235,802.026667 89.7875,804.138333 91.185,806.71 C94.2225,805.5725 95.51,803.843333 95.6625,803.625 C94.1541667,802.283333 92.1708333,801.47 90,801.47 C89.3125,801.47 88.6416667,801.553333 88,801.7075 L88,801.71 Z M96.6125,804.6125 C96.4308333,804.854167 95,806.69 91.8425,807.979167 C92.0425,808.3875 92.2341667,808.8 92.4091667,809.2175 C92.4758333,809.3675 92.5341667,809.5175 92.5925,809.659167 C95.4341667,809.300833 98.2591667,809.875833 98.5425,809.934167 C98.5258333,807.9175 97.8091667,806.0675 96.6175,804.6175 L96.6125,804.6125 Z" id="Dribbble"></path>
            </g>
        </g>
    </g>
</svg>