<?xml version="1.0" encoding="UTF-8"?>
<svg width="20px" height="20px" viewBox="0 0 20 20" version="1.1" xmlns="http://www.w3.org/2000/svg" xmlns:xlink="http://www.w3.org/1999/xlink">
    <!-- Generator: Sketch 56 (81588) - https://sketch.com -->
    <title>Instagram</title>
    <desc>Created with Sketch.</desc>
    <g id="IRL-Website-2019" stroke="none" stroke-width="1" fill="none" fill-rule="evenodd">
        <g id="IRL-Website-2019-Desktop" transform="translate(-173.000000, -800.000000)" fill="#000000" fill-rule="nonzero">
            <g id="Sidebar">
                <path d="M183,800 C180.283333,800 179.944167,800.0125 178.8775,800.06 C177.8125,800.11 177.0875,800.2775 176.45,800.525 C175.7925,800.78 175.234167,801.1225 174.678333,801.678333 C174.1225,802.234167 173.779167,802.791667 173.525,803.45 C173.2775,804.0875 173.109167,804.8125 173.06,805.8775 C173.01,806.944167 173,807.283333 173,810 C173,812.716667 173.0125,813.055833 173.06,814.1225 C173.11,815.186667 173.2775,815.9125 173.525,816.55 C173.78,817.206667 174.1225,817.765833 174.678333,818.321667 C175.234167,818.876667 175.791667,819.220833 176.45,819.475 C177.088333,819.721667 177.813333,819.890833 178.8775,819.94 C179.944167,819.99 180.283333,820 183,820 C185.716667,820 186.055833,819.9875 187.1225,819.94 C188.186667,819.89 188.9125,819.721667 189.55,819.475 C190.206667,819.22 190.765833,818.876667 191.321667,818.321667 C191.876667,817.765833 192.220833,817.209167 192.475,816.55 C192.721667,815.9125 192.890833,815.186667 192.94,814.1225 C192.99,813.055833 193,812.716667 193,810 C193,807.283333 192.9875,806.944167 192.94,805.8775 C192.89,804.813333 192.721667,804.086667 192.475,803.45 C192.22,802.7925 191.876667,802.234167 191.321667,801.678333 C190.765833,801.1225 190.209167,800.779167 189.55,800.525 C188.9125,800.2775 188.186667,800.109167 187.1225,800.06 C186.055833,800.01 185.716667,800 183,800 Z M183,801.8 C185.669167,801.8 185.9875,801.813333 187.041667,801.859167 C188.016667,801.905 188.545833,802.066667 188.8975,802.205 C189.365833,802.385833 189.6975,802.6025 190.049167,802.951667 C190.398333,803.301667 190.615,803.634167 190.795833,804.1025 C190.9325,804.454167 191.095833,804.983333 191.14,805.958333 C191.1875,807.013333 191.198333,807.33 191.198333,810 C191.198333,812.67 191.185833,812.9875 191.136667,814.041667 C191.085833,815.016667 190.923333,815.545833 190.785833,815.8975 C190.599167,816.365833 190.386667,816.6975 190.036667,817.049167 C189.6875,817.398333 189.35,817.615 188.886667,817.795833 C188.536667,817.9325 187.999167,818.095833 187.024167,818.14 C185.9625,818.1875 185.65,818.198333 182.975,818.198333 C180.299167,818.198333 179.986667,818.185833 178.925833,818.136667 C177.95,818.085833 177.4125,817.923333 177.0625,817.785833 C176.588333,817.599167 176.2625,817.386667 175.913333,817.036667 C175.5625,816.6875 175.338333,816.35 175.163333,815.886667 C175.025833,815.536667 174.864167,814.999167 174.813333,814.024167 C174.775833,812.974167 174.7625,812.65 174.7625,809.9875 C174.7625,807.324167 174.775833,806.999167 174.813333,805.936667 C174.864167,804.961667 175.025833,804.425 175.163333,804.075 C175.338333,803.6 175.5625,803.275 175.913333,802.924167 C176.2625,802.575 176.588333,802.35 177.0625,802.175833 C177.4125,802.0375 177.938333,801.875 178.913333,801.825 C179.975833,801.7875 180.288333,801.775 182.9625,801.775 L183,801.8 L183,801.8 Z M183,804.865 C180.1625,804.865 177.865,807.165 177.865,810 C177.865,812.8375 180.165,815.135 183,815.135 C185.8375,815.135 188.135,812.835 188.135,810 C188.135,807.1625 185.835,804.865 183,804.865 Z M183,813.333333 C181.158333,813.333333 179.666667,811.841667 179.666667,810 C179.666667,808.158333 181.158333,806.666667 183,806.666667 C184.841667,806.666667 186.333333,808.158333 186.333333,810 C186.333333,811.841667 184.841667,813.333333 183,813.333333 Z M189.538333,804.6625 C189.538333,805.325 189,805.8625 188.338333,805.8625 C187.675833,805.8625 187.138333,805.324167 187.138333,804.6625 C187.138333,804.000833 187.676667,803.463332 188.338333,803.463332 C188.999167,803.4625 189.538333,804.000833 189.538333,804.6625 Z" id="Instagram"></path>
            </g>
        </g>
    </g>
</svg>