<?xml version="1.0" encoding="UTF-8"?>
<svg width="25px" height="20px" viewBox="0 0 25 20" version="1.1" xmlns="http://www.w3.org/2000/svg" xmlns:xlink="http://www.w3.org/1999/xlink">
    <!-- Generator: Sketch 56 (81588) - https://sketch.com -->
    <title>Twitter</title>
    <desc>Created with Sketch.</desc>
    <g id="IRL-Website-2019" stroke="none" stroke-width="1" fill="none" fill-rule="evenodd">
        <g id="IRL-Website-2019-Desktop" transform="translate(-124.000000, -800.000000)" fill="#000000" fill-rule="nonzero">
            <g id="Sidebar">
                <path d="M148.951044,802.381709 C148.029207,802.78054 147.044873,803.052238 146.008458,803.176296 C147.064664,802.549854 147.87713,801.562516 148.261489,800.384477 C147.270905,800.953504 146.173034,801.367714 145.004333,801.598401 C144.071039,800.615164 142.740886,800 141.263864,800 C138.433774,800 136.139078,802.258676 136.139078,805.041267 C136.139078,805.441124 136.185951,805.825601 136.271364,806.193674 C132.011125,805.995796 128.23524,803.98216 125.708262,800.938125 C125.263489,801.678372 125.014541,802.538576 125.014541,803.475675 C125.014541,805.228892 125.920753,806.769877 127.293613,807.675194 C126.453023,807.648536 125.662431,807.420926 124.972876,807.043625 L124.972876,807.106167 C124.972876,809.551443 126.736344,811.590711 129.083122,812.05516 C128.652931,812.168965 128.198783,812.230481 127.733178,812.230481 C127.406108,812.230481 127.092579,812.199723 126.779051,812.142308 C127.436315,814.144666 129.32582,815.604655 131.574684,815.645666 C129.824757,816.998001 127.607141,817.803865 125.218699,817.803865 C124.812466,817.803865 124.407275,817.780284 124,817.735172 C126.280113,819.164403 128.96646,820 131.871547,820 C141.302404,820 146.453231,812.314554 146.453231,805.660532 C146.453231,805.44625 146.453231,805.229917 146.437607,805.01461 C147.438607,804.308197 148.312529,803.415184 149,802.402215 L148.951044,802.381709 Z" id="Twitter"></path>
            </g>
        </g>
    </g>
</svg>